<svg xmlns="http://www.w3.org/2000/svg"  viewBox="0 0 100 100" width="100px" height="100px" clip-rule="evenodd" baseProfile="basic"><path fill="#c7ede6" d="M87.215,56.709C88.351,54.555,89,52.105,89,49.5	c0-6.621-4.159-12.257-10.001-14.479C78.999,35.015,79,35.008,79,35c0-11.599-9.401-21-21-21c-9.784,0-17.981,6.701-20.313,15.757	C36.211,29.272,34.639,29,33,29c-7.692,0-14.023,5.793-14.889,13.252C12.907,43.353,9,47.969,9,53.5C9,59.851,14.149,65,20.5,65	c0.177,0,0.352-0.012,0.525-0.023C21.023,65.153,21,65.324,21,65.5C21,76.821,30.179,86,41.5,86c6.437,0,12.175-2.972,15.935-7.615	C59.612,80.611,62.64,82,66,82c4.651,0,8.673-2.651,10.667-6.519C77.719,75.817,78.837,76,80,76c6.075,0,11-4.925,11-11	C91,61.689,89.531,58.727,87.215,56.709z"/><path fill="#fff" d="M31.405,74H21.5c-0.276,0-0.5-0.224-0.5-0.5	s0.224-0.5,0.5-0.5h9.905c0.276,0,0.5,0.224,0.5,0.5S31.683,74,31.405,74z"/><path fill="#fff" d="M34.5,74h-1c-0.276,0-0.5-0.224-0.5-0.5s0.224-0.5,0.5-0.5h1	c0.276,0,0.5,0.224,0.5,0.5S34.777,74,34.5,74z"/><path fill="#fff" d="M39.491,76H30.5c-0.276,0-0.5-0.224-0.5-0.5	s0.224-0.5,0.5-0.5h8.991c0.276,0,0.5,0.224,0.5,0.5S39.767,76,39.491,76z"/><path fill="#fff" d="M28.5,76h-1c-0.276,0-0.5-0.224-0.5-0.5s0.224-0.5,0.5-0.5h1	c0.276,0,0.5,0.224,0.5,0.5S28.777,76,28.5,76z"/><path fill="#fff" d="M25.5,76h-2c-0.276,0-0.5-0.224-0.5-0.5s0.224-0.5,0.5-0.5h2	c0.276,0,0.5,0.224,0.5,0.5S25.777,76,25.5,76z"/><path fill="#fff" d="M31.5,78h-2c-0.276,0-0.5-0.224-0.5-0.5s0.224-0.5,0.5-0.5h2	c0.276,0,0.5,0.224,0.5,0.5S31.776,78,31.5,78z"/><path fill="#fff" d="M34.5,69c-0.177,0-0.823,0-1,0c-0.276,0-0.5,0.224-0.5,0.5	s0.224,0.5,0.5,0.5c0.177,0,0.823,0,1,0c0.276,0,0.5-0.224,0.5-0.5S34.776,69,34.5,69z"/><path fill="#fff" d="M34.5,71c-0.177,0-4.823,0-5,0c-0.276,0-0.5,0.224-0.5,0.5	s0.224,0.5,0.5,0.5c0.177,0,4.823,0,5,0c0.276,0,0.5-0.224,0.5-0.5S34.776,71,34.5,71z"/><path fill="#fff" d="M39.5,73c-0.177,0-2.823,0-3,0c-0.276,0-0.5,0.224-0.5,0.5	s0.224,0.5,0.5,0.5c0.177,0,2.823,0,3,0c0.276,0,0.5-0.224,0.5-0.5S39.776,73,39.5,73z"/><path fill="#fff" d="M67.5,24h-10c-0.276,0-0.5-0.224-0.5-0.5s0.224-0.5,0.5-0.5	h10c0.276,0,0.5,0.224,0.5,0.5S67.776,24,67.5,24z"/><path fill="#fff" d="M71.5,24h-2c-0.276,0-0.5-0.224-0.5-0.5s0.224-0.5,0.5-0.5h2	c0.276,0,0.5,0.224,0.5,0.5S71.776,24,71.5,24z"/><path fill="#fff" d="M76.5,26h-10c-0.276,0-0.5-0.224-0.5-0.5	c0-0.276,0.224-0.5,0.5-0.5h10c0.276,0,0.5,0.224,0.5,0.5C77,25.776,76.777,26,76.5,26z"/><path fill="#fff" d="M64.5,26h-1c-0.276,0-0.5-0.224-0.5-0.5	c0-0.276,0.224-0.5,0.5-0.5h1c0.276,0,0.5,0.224,0.5,0.5C65,25.776,64.776,26,64.5,26z"/><path fill="#fff" d="M61.375,26H59.5c-0.276,0-0.5-0.224-0.5-0.5	c0-0.276,0.224-0.5,0.5-0.5h1.875c0.276,0,0.5,0.224,0.5,0.5C61.875,25.776,61.651,26,61.375,26z"/><path fill="#fff" d="M70.5,22h-5c-0.276,0-0.5-0.224-0.5-0.5s0.224-0.5,0.5-0.5h5	c0.276,0,0.5,0.224,0.5,0.5S70.777,22,70.5,22z"/><path fill="#fff" d="M67.5,28h-2c-0.276,0-0.5-0.224-0.5-0.5s0.224-0.5,0.5-0.5h2	c0.276,0,0.5,0.224,0.5,0.5S67.776,28,67.5,28z"/><path fill="#fdfcef" d="M29.5,57.5c0,0,1.567,0,3.5,0c1.933,0,3.5-1.567,3.5-3.5	c0-1.781-1.335-3.235-3.055-3.455C33.473,50.365,33.5,50.187,33.5,50c0-1.933-1.567-3.5-3.5-3.5c-1.032,0-1.949,0.455-2.589,1.165	C27.027,45.857,25.423,44.5,23.5,44.5c-2.209,0-4,1.791-4,4c0,0.191,0.031,0.373,0.056,0.557C19.128,48.713,18.592,48.5,18,48.5	c-1.228,0-2.245,0.887-2.455,2.055C15.367,50.527,15.187,50.5,15,50.5c-1.933,0-3.5,1.567-3.5,3.5c0,1.933,1.567,3.5,3.5,3.5	c1.933,0,7.5,0,7.5,0V58h7V57.5z"/><path fill="#472b29" d="M31.251,53C31.112,53,31,52.888,31,52.749	c0-1.223,0.995-2.217,2.217-2.217c0.035,0.009,0.737-0.001,1.245,0.136c0.132,0.036,0.212,0.173,0.176,0.305	c-0.037,0.135-0.173,0.213-0.307,0.177c-0.444-0.121-1.1-0.121-1.113-0.119c-0.948,0-1.719,0.771-1.719,1.719	C31.5,52.888,31.388,53,31.251,53z"/><path fill="#472b29" d="M25,57.5c0-0.276-0.224-0.5-0.5-0.5S24,57.224,24,57.5	c0,0.276,0.224,0.5,0.5,0.5S25,57.776,25,57.5z"/><path fill="#472b29" d="M33,58h-3.5c-0.276,0-0.5-0.224-0.5-0.5	c0-0.276,0.224-0.5,0.5-0.5H33c1.655,0,3-1.347,3-3c0-1.496-1.125-2.768-2.617-2.959c-0.135-0.019-0.256-0.088-0.336-0.196	c-0.081-0.108-0.116-0.244-0.095-0.377C32.975,50.313,33,50.16,33,50c0-1.655-1.345-3-3-3c-0.849,0-1.637,0.355-2.219,1	c-0.125,0.139-0.321,0.197-0.5,0.148c-0.183-0.049-0.321-0.195-0.36-0.379C26.58,46.165,25.141,45,23.5,45	c-1.929,0-3.5,1.569-3.5,3.5c0,0.143,0.021,0.28,0.041,0.417c0.029,0.204-0.063,0.439-0.243,0.54	c-0.179,0.103-0.396,0.119-0.556-0.009C18.879,49.155,18.449,49,18,49c-0.965,0-1.792,0.691-1.963,1.644	c-0.048,0.267-0.296,0.445-0.569,0.405C15.315,51.025,15.16,51,15,51c-1.653,0-3,1.345-3,3c0,1.653,1.347,3,3,3h7.5	c0.276,0,0.5,0.224,0.5,0.5c0,0.276-0.224,0.5-0.5,0.5H15c-2.205,0-4-1.795-4-4c0-2.207,1.795-4,4-4	c0.059,0,0.116,0.001,0.175,0.005C15.588,48.82,16.711,48,18,48c0.349,0,0.689,0.061,1.011,0.18C19.176,45.847,21.127,44,23.5,44	c1.831,0,3.467,1.127,4.153,2.773C28.333,46.276,29.155,46,30,46c2.207,0,4,1.793,4,4c0,0.048-0.001,0.095-0.004,0.141	C35.739,50.589,37,52.169,37,54C37,56.205,35.207,58,33,58z"/><path fill="#472b29" d="M27.5,57c-0.159,0-0.841,0-1,0c-0.276,0-0.5,0.224-0.5,0.5	c0,0.276,0.224,0.5,0.5,0.5c0.159,0,0.841,0,1,0c0.276,0,0.5-0.224,0.5-0.5C28,57.224,27.776,57,27.5,57z"/><path fill="#fdfcef" d="M83.875,71.5c0,0,3.64,0,6.125,0c2.485,0,4.5-2.015,4.5-4.5	c0-2.333-1.781-4.229-4.055-4.455C90.467,62.364,90.5,62.187,90.5,62c0-2.485-2.015-4.5-4.5-4.5c-1.439,0-2.703,0.685-3.527,1.736	C82.333,56.6,80.171,54.5,77.5,54.5c-2.761,0-5,2.239-5,5c0,0.445,0.077,0.869,0.187,1.281C72.045,60.005,71.087,59.5,70,59.5	c-1.781,0-3.233,1.335-3.455,3.055C66.364,62.533,66.187,62.5,66,62.5c-2.485,0-4.5,2.015-4.5,4.5c0,2.485,2.015,4.5,4.5,4.5	c2.485,0,9.5,0,9.5,0h5.375V72h3V71.5z"/><path fill="#472b29" d="M77.5,54c-3.033,0-5.5,2.467-5.5,5.5c0,0.016,0,0.031,0,0.047	C71.399,59.192,70.711,59,70,59c-1.831,0-3.411,1.261-3.857,3.005C66.095,62.001,66.048,62,66,62c-2.757,0-5,2.243-5,5	c0,2.757,2.243,5,5,5h14.875c0.276,0,0.5-0.224,0.5-0.5s-0.224-0.5-0.5-0.5H66c-2.205,0-4-1.795-4-4c0-2.207,1.795-4,4-4	c0.117,0,0.231,0.017,0.343,0.032l0.141,0.019c0.021,0.003,0.041,0.004,0.063,0.004c0.245,0,0.461-0.184,0.495-0.437	C67.232,61.125,68.504,60,70,60c0.885,0,1.723,0.401,2.301,1.1c0.097,0.117,0.241,0.181,0.385,0.181	c0.079,0,0.156-0.017,0.228-0.056c0.209-0.107,0.315-0.345,0.255-0.572C73.055,60.217,73,59.852,73,59.5c0-2.481,2.019-4.5,4.5-4.5	c2.381,0,4.347,1.872,4.475,4.263c0.011,0.208,0.149,0.387,0.348,0.451c0.051,0.016,0.101,0.024,0.152,0.024	c0.151,0,0.296-0.069,0.392-0.192C83.639,58.563,84.779,58,86,58c2.207,0,4,1.793,4,4c0,0.117-0.017,0.229-0.032,0.343l-0.019,0.141	c-0.016,0.133,0.021,0.268,0.105,0.373c0.084,0.104,0.208,0.172,0.34,0.184C92.451,63.247,94,64.949,94,67c0,2.205-1.793,4-4,4	h-6.125c-0.276,0-0.5,0.224-0.5,0.5s0.224,0.5,0.5,0.5H90c2.757,0,5-2.243,5-5c0-2.397-1.689-4.413-4.003-4.877	C90.999,62.081,91,62.041,91,62c0-2.757-2.243-5-5-5c-1.176,0-2.293,0.416-3.183,1.164C82.219,55.76,80.055,54,77.5,54L77.5,54z"/><path fill="#472b29" d="M76,61c-1.403,0-2.609,0.999-2.913,2.341	C72.72,63.119,72.301,63,71.875,63c-1.201,0-2.197,0.897-2.352,2.068C69.319,65.021,69.127,65,68.939,65	c-1.529,0-2.812,1.2-2.919,2.732c-0.009,0.137,0.095,0.259,0.231,0.268c0.007,0,0.012,0,0.019,0c0.129,0,0.24-0.101,0.249-0.232	c0.088-1.271,1.151-2.268,2.419-2.268c0.229,0,0.469,0.041,0.737,0.127c0.023,0.007,0.045,0.011,0.068,0.011	c0.055,0,0.109-0.02,0.156-0.055C69.963,65.537,70,65.455,70,65.375c0-1.033,0.841-1.875,1.875-1.875	c0.448,0,0.885,0.168,1.232,0.473c0.047,0.04,0.105,0.063,0.164,0.063c0.032,0,0.064-0.007,0.093-0.019	c0.088-0.036,0.148-0.117,0.155-0.212C73.623,62.512,74.712,61.5,76,61.5c0.208,0,0.425,0.033,0.683,0.107	c0.023,0.007,0.047,0.011,0.069,0.011c0.109,0,0.207-0.073,0.239-0.183c0.039-0.133-0.039-0.271-0.172-0.309	C76.517,61.04,76.256,61,76,61L76,61z"/><path fill="#472b29" d="M89.883,62.5c-1.325,0-2.508,0.897-2.873,2.181	c-0.039,0.133,0.039,0.272,0.172,0.309C87.205,64.997,87.228,65,87.251,65c0.108,0,0.208-0.072,0.24-0.183	C87.795,63.748,88.779,63,89.883,63c0.117,0,0.231,0.013,0.343,0.029c0.012,0.001,0.023,0.003,0.035,0.003	c0.121,0,0.229-0.092,0.247-0.217c0.019-0.137-0.077-0.263-0.215-0.281C90.159,62.516,90.023,62.5,89.883,62.5L89.883,62.5z"/><path fill="#e0a825" fill-rule="evenodd" d="M49.515,39.3v-0.448	c-1.792-1.288-4.991-2.144-8.635-2.144c-4.052,0-7.548,1.057-9.18,2.592H49.515z" clip-rule="evenodd"/><path fill="#f9e75c" fill-rule="evenodd" d="M47.955,29.709v3.04	h5.076v-3.04H47.955z" clip-rule="evenodd"/><path fill="#fdc938" fill-rule="evenodd" d="M49.515,29.709h7.036	c-0.248,1.719-1.731,3.039-3.519,3.039C51.243,32.748,49.764,31.428,49.515,29.709z" clip-rule="evenodd"/><path fill="#472b29" fill-rule="evenodd" d="M31.22,38.791	c0.927-0.872,2.325-1.561,3.968-2.035c1.655-0.476,3.607-0.748,5.692-0.748c3.723,0,7.087,0.869,9.043,2.276	c0.184,0.132,0.292,0.343,0.292,0.568V39.3c0,0.388-0.313,0.701-0.7,0.701H31.7C31.067,40.001,30.759,39.224,31.22,38.791z M40.88,37.409c-1.968,0-3.789,0.257-5.304,0.693c-0.477,0.137-0.92,0.291-1.323,0.457l-0.095,0.04H47.6l-0.407-0.163	C45.529,37.808,43.329,37.409,40.88,37.409z" clip-rule="evenodd"/><path fill="#fdc938" fill-rule="evenodd" d="M40.699,58.301V37.103	c0-4.081,3.285-7.395,7.331-7.395c4.043,0,7.327,3.313,7.327,7.395v21.199H40.699z" clip-rule="evenodd"/><path fill="#fdfcee" d="M44.999,33.504c0.825,0,1.497,0.671,1.497,1.496	c0,0.825-0.672,1.496-1.497,1.496S43.501,35.825,43.501,35C43.501,34.175,44.173,33.504,44.999,33.504z"/><path fill="#472b29" fill-rule="evenodd" d="M39.997,58.301V37.103	c0-4.461,3.593-8.095,8.032-8.095h8.269c0.425,0,0.753,0.379,0.693,0.8c-0.179,1.237-0.896,2.303-1.909,2.939l-0.225,0.119	l0.211,0.351c0.629,1.155,0.988,2.48,0.988,3.887v21.199c0,0.388-0.313,0.701-0.7,0.701H40.699	C40.311,59.003,39.997,58.689,39.997,58.301z M54.655,57.601V37.103c0-1.555-0.528-2.984-1.411-4.121	c-0.305-0.395-0.111-0.976,0.371-1.107c0.647-0.175,1.2-0.587,1.563-1.14l0.181-0.325h-7.329c-3.653,0-6.631,2.993-6.631,6.693	v20.499H54.655z" clip-rule="evenodd"/><path fill="#ee3e54" fill-rule="evenodd" d="M40.699,59.499	c0-8.724,6.744-15.804,15.052-15.804l14.548,0.001c0,8.308-6.956,15.049-14.988,15.049v16.557	C47.003,75.303,40.699,68.219,40.699,59.499z" clip-rule="evenodd"/><path fill="#472b29" fill-rule="evenodd" d="M39.997,59.499	c0-9.077,7.025-16.504,15.753-16.504l14.548,0.001c0.387,0,0.7,0.313,0.7,0.7c0,8.157-6.395,14.864-14.127,15.671l-0.861,0.044	v15.892c0,0.388-0.313,0.701-0.7,0.701C46.557,76.004,39.997,68.545,39.997,59.499z M54.609,74.565v-15.82	c0-0.387,0.313-0.7,0.701-0.7c7.171,0,13.452-5.652,14.209-12.883l0.039-0.765l-13.809-0.001c-7.888,0-14.351,6.733-14.351,15.103	c0,7.871,5.315,14.26,12.459,15.027l0.751,0.04H54.609z" clip-rule="evenodd"/><path fill="#472b29" fill-rule="evenodd" d="M43.001,35	c0-1.101,0.896-1.995,1.997-1.995c1.1,0,1.996,0.893,1.996,1.995c0,1.103-0.896,1.996-1.996,1.996	C43.897,36.996,43.001,36.103,43.001,35z M45.996,35c0-0.548-0.448-0.996-0.997-0.996C44.448,34.004,44,34.452,44,35	c0,0.549,0.448,0.997,0.999,0.997C45.548,35.997,45.996,35.549,45.996,35z" clip-rule="evenodd"/><path fill="#472b29" fill-rule="evenodd" d="M51,41.483v-1.996	c0-0.275,0.224-0.5,0.5-0.5c0.275,0,0.5,0.225,0.5,0.5v1.996c0,0.276-0.225,0.5-0.5,0.5C51.224,41.983,51,41.759,51,41.483z M50.956,36.568c-0.087-0.517-0.3-0.989-0.611-1.391c-0.233-0.3-0.421-0.62-0.564-0.953l-0.021-0.06L49.713,34h-1.264	c-0.276,0-0.5-0.224-0.5-0.5c0-0.275,0.224-0.5,0.5-0.5h1.643c0.223,0,0.42,0.149,0.48,0.364l0.139,0.491l0.077,0.165	c0.095,0.187,0.211,0.369,0.348,0.545c0.407,0.527,0.692,1.151,0.805,1.839c0.045,0.272-0.139,0.531-0.411,0.575	C51.259,37.024,51,36.84,50.956,36.568z" clip-rule="evenodd"/><path fill="#472b29" fill-rule="evenodd" d="M44,45.497v-5.995	c0-0.275,0.224-0.5,0.5-0.5c0.275,0,0.5,0.225,0.5,0.5v5.995c0,0.276-0.225,0.5-0.5,0.5C44.224,45.997,44,45.773,44,45.497z" clip-rule="evenodd"/><path fill="#472b29" fill-rule="evenodd" d="M51.437,71.208	l-0.092-0.012l-0.367-0.121l-0.049-0.02c-0.793-0.357-1.543-0.812-2.233-1.351c-0.217-0.169-0.257-0.484-0.087-0.701	c0.169-0.217,0.484-0.257,0.701-0.087c0.315,0.245,0.641,0.472,0.98,0.676l0.712,0.375l0.001-1.995c0-0.276,0.224-0.5,0.5-0.499	c0.276,0,0.5,0.224,0.499,0.5l-0.001,2.748l-0.013,0.064l-0.024,0.12l-0.048,0.079l-0.053,0.081l-0.072,0.052l-0.084,0.059	l-0.073,0.019l-0.129,0.025L51.437,71.208z M46.453,67.375c-0.885-1.22-1.564-2.64-1.981-4.208	c-0.071-0.267,0.088-0.541,0.355-0.612c0.267-0.071,0.541,0.088,0.612,0.355c0.385,1.453,1.013,2.759,1.824,3.877	c0.163,0.224,0.112,0.537-0.111,0.699C46.928,67.648,46.615,67.597,46.453,67.375z M51.004,61.145v-2.4	c0-2.376,1.928-4.307,4.307-4.307c3.721,0,7.159-2.079,9.083-5.184l0.655-1.252l-9.3-0.001c-5.735,0-10.743,4.956-10.743,11.497	c0,0.172,0.001,0.341,0.007,0.508c0.009,0.276-0.208,0.507-0.484,0.515c-0.276,0.009-0.507-0.208-0.515-0.484	c-0.005-0.177-0.008-0.357-0.008-0.539c0-7.052,5.415-12.497,11.744-12.497l10.009,0.003c0.337,0,0.579,0.328,0.476,0.651	l-0.177,0.559l-0.019,0.048c-1.823,4.201-6.052,7.177-10.728,7.177c-1.825,0-3.307,1.484-3.307,3.307v2.4c0,0.276-0.225,0.5-0.5,0.5	C51.228,61.645,51.004,61.421,51.004,61.145z" clip-rule="evenodd"/></svg>